<svg width="500" height="500" viewBox="0 0 500 500" fill="none" xmlns="http://www.w3.org/2000/svg">
<g clip-path="url(#clip0_1506:59890)">
<path d="M384.563 159.949V55H115V159.949H174.972V339.743H115V444.692H384.563V339.743H324.591V159.949H384.563ZM324.797 354.795H369.724V429.64H130.044V354.795H174.972C183.215 354.795 190.016 347.991 190.016 339.743V159.949C190.016 151.701 183.215 144.897 174.972 144.897H130.044V70.0516H369.724V144.897H324.797C316.554 144.897 309.753 151.701 309.753 159.949V339.743C309.753 347.991 316.554 354.795 324.797 354.795Z" fill="white"/>
<path d="M324.797 144.897H369.724V70.0516H130.044V144.897H174.972C183.215 144.897 190.016 151.701 190.016 159.949V339.743C190.016 347.991 183.215 354.795 174.972 354.795H130.044V429.64H369.724V354.795H324.797C316.554 354.795 309.753 347.991 309.753 339.743V159.949C309.753 151.701 316.554 144.897 324.797 144.897Z" fill="#E84A27"/>
</g>
<defs>
<clipPath id="clip0_1506:59890">
<rect width="269" height="389.692" fill="white" transform="translate(115 55)"/>
</clipPath>
</defs>
</svg>
