<svg width="500" height="500" viewBox="0 0 500 500" fill="none" xmlns="http://www.w3.org/2000/svg">
<g clip-path="url(#clip0_1506:60015)">
<path d="M297.176 365.597C288.703 365.597 282.013 372.39 282.013 380.743C282.013 389.095 288.703 395.889 297.176 395.889C305.538 395.889 312.34 389.095 312.34 380.743C312.228 372.39 305.538 365.597 297.176 365.597ZM297.176 392.325C290.598 392.325 285.581 387.536 285.581 380.743C285.581 373.949 290.487 369.161 297.176 369.161C303.643 369.161 308.772 373.949 308.772 380.743C308.66 387.536 303.643 392.325 297.176 392.325Z" fill="black"/>
<path d="M304.869 377.624C304.869 373.504 302.416 372.836 298.737 372.836H291.044V388.538H294.612V381.856H297.065L300.632 388.538H304.423L300.632 381.856C303.42 381.634 304.869 380.52 304.869 377.624ZM298.849 379.518H294.612V375.508H298.068C299.629 375.508 301.636 375.508 301.636 377.068C301.524 379.072 300.632 379.518 298.849 379.518Z" fill="black"/>
<path d="M433.2 218.482C411.904 225.721 357.495 273.163 339.098 307.464C373.216 286.527 454.941 303.677 446.133 366.711C502.327 329.626 484.822 237.414 433.2 218.482Z" fill="black"/>
<path d="M251.352 206.343C250.348 228.617 267.518 247.437 289.817 248.44C312.116 249.442 330.959 232.292 331.962 210.018C332.297 201.666 330.179 193.759 326.053 187.188C333.412 188.413 341.663 193.759 347.572 203.114C357.049 218.259 364.185 227.28 376.337 229.73C398.971 234.408 414.803 215.364 413.354 197.211C412.127 182.511 403.877 171.82 396.518 164.692C357.495 126.939 311.113 109.343 245.22 105.557C75.1899 95.9793 19.2195 194.761 20 244.987C28.1391 235.744 40.4035 226.055 48.0967 222.937C33.1564 244.431 26.9127 263.474 26.9127 285.859C35.2748 275.39 41.7415 270.936 50.2151 267.483C37.6162 291.427 37.3932 307.13 38.1736 328.846C46.2013 318.935 52.668 313.032 59.5806 310.137C59.5806 310.137 48.0967 338.535 54.1174 368.27C107.523 265.813 192.259 196.098 258.487 185.852C255.366 191.309 251.686 199.661 251.352 206.343Z" fill="black"/>
<path d="M373.104 340.651C358.833 336.308 337.649 332.633 331.74 332.076C332.185 356.242 351.363 376.288 376.003 377.402C387.152 377.959 397.633 374.284 405.884 368.047C379.348 372.836 367.975 355.797 373.104 340.651Z" fill="black"/>
<path d="M288.703 273.72C257.038 272.272 231.617 248.662 226.823 218.594C226.823 218.594 216.119 221.712 201.291 232.514C184.678 244.653 182.782 252.783 182.782 252.783C204.747 242.983 222.698 249.887 228.272 262.026C233.847 274.165 224.482 290.536 196.496 301.895C172.859 311.473 154.463 326.062 153.125 347.778C151.898 367.267 162.936 389.095 194.935 394.775C255.366 405.355 319.81 337.087 321.259 267.706C312.451 271.492 298.849 274.165 288.703 273.72Z" fill="black"/>
</g>
<defs>
<clipPath id="clip0_1506:60015">
<rect width="460.92" height="291" fill="white" transform="translate(20 105)"/>
</clipPath>
</defs>
</svg>
