<svg width="500" height="500" viewBox="0 0 500 500" fill="none" xmlns="http://www.w3.org/2000/svg">
<g clip-path="url(#clip0_1508:60745)">
<path d="M335.286 175.222C335.286 175.222 357.927 175.222 364.181 175.222C364.181 163.823 364.181 135.218 364.181 123.818C349.733 123.818 263.05 123.818 248.818 123.818C248.818 135.218 248.818 163.823 248.818 175.222C255.072 175.222 277.713 175.222 277.713 175.222L231.352 252.006L184.992 175.222C184.992 175.222 207.633 175.222 213.886 175.222C213.886 163.823 213.886 135.218 213.886 123.818C199.439 123.818 112.756 123.818 98.5241 123.818C98.5241 135.218 98.5241 163.823 98.5241 175.222C104.777 175.222 127.419 175.222 127.419 175.222L36.6382 325.778C36.6382 325.778 20.466 325.778 12.0564 325.778C12.0564 337.177 12.0564 365.783 12.0564 377.182C26.5036 377.182 115.775 377.182 130.222 377.182C130.222 365.783 130.222 337.177 130.222 325.778C123.106 325.778 98.9554 325.778 98.9554 325.778L156.097 230.498L188.011 283.407C188.011 283.407 168.82 283.407 165.585 283.407C165.585 294.806 165.585 323.412 165.585 334.811C180.248 334.811 282.025 334.811 296.688 334.811C296.688 323.412 296.688 294.806 296.688 283.407C293.454 283.407 274.263 283.407 274.263 283.407L306.176 230.498L363.749 325.778C363.749 325.778 339.599 325.778 332.483 325.778C332.483 337.177 332.483 365.783 332.483 377.182C346.93 377.182 436.201 377.182 450.648 377.182C450.648 365.783 450.648 337.177 450.648 325.778C442.239 325.778 425.851 325.778 425.851 325.778L335.286 175.222ZM441.807 368.364C427.792 368.364 355.34 368.364 341.539 368.364C341.539 358.685 341.539 344.275 341.539 334.596C350.596 334.596 379.706 334.596 379.706 334.596L306.607 213.291L258.953 292.225C258.953 292.225 281.594 292.225 288.063 292.225C288.063 301.904 288.063 316.314 288.063 325.993C273.832 325.993 188.873 325.993 174.642 325.993C174.642 316.314 174.642 301.904 174.642 292.225C181.111 292.225 203.752 292.225 203.752 292.225L156.097 213.291L82.9987 334.596C82.9987 334.596 111.893 334.596 121.165 334.596C121.165 344.275 121.165 358.685 121.165 368.364C107.149 368.364 34.6976 368.364 20.8972 368.364C20.8972 358.685 20.8972 344.275 20.8972 334.596C28.2287 334.596 41.8134 334.596 41.8134 334.596L143.16 166.404C143.16 166.404 115.99 166.404 107.365 166.404C107.365 156.725 107.365 142.315 107.365 132.637C121.165 132.637 191.245 132.637 205.045 132.637C205.045 142.315 205.045 156.725 205.045 166.404C196.636 166.404 169.251 166.404 169.251 166.404L231.352 269.212L293.454 166.404C293.454 166.404 266.284 166.404 257.659 166.404C257.659 156.725 257.659 142.315 257.659 132.637C271.46 132.637 341.539 132.637 355.34 132.637C355.34 142.315 355.34 156.725 355.34 166.404C346.93 166.404 319.545 166.404 319.545 166.404L420.891 334.596C420.891 334.596 434.476 334.596 441.807 334.596C441.807 344.275 441.807 358.685 441.807 368.364Z" fill="#691C33"/>
<path d="M495.715 366.643C495.068 365.352 494.206 364.062 493.128 362.771C492.049 361.481 490.54 360.621 488.815 359.76C487.09 358.9 485.365 358.47 483.209 358.47C481.052 358.47 479.112 358.9 477.171 359.76C475.877 360.405 474.583 361.266 473.29 362.556C472.211 363.632 471.133 365.137 470.486 366.858C469.839 368.578 469.408 370.299 469.408 372.235C469.408 374.601 470.055 376.967 471.133 379.117C472.427 381.268 473.936 382.989 476.093 384.064C478.249 385.355 480.621 385.785 482.993 385.785C485.149 385.785 487.09 385.355 489.031 384.494C490.54 383.849 491.834 382.774 492.912 381.698C494.206 380.408 495.068 379.117 495.715 377.397C496.362 375.676 496.793 373.955 496.793 372.235C496.793 370.299 496.362 368.363 495.715 366.643ZM493.128 378.042C492.049 379.978 490.756 381.268 488.815 382.344C487.09 383.419 485.149 383.849 482.993 383.849C481.052 383.849 479.112 383.419 477.171 382.344C475.446 381.268 473.936 379.978 472.858 378.042C471.78 376.106 471.349 374.171 471.349 372.235C471.349 370.514 471.78 369.009 472.427 367.503C473.074 365.998 473.936 364.922 475.015 363.847C476.093 362.771 477.171 362.126 478.249 361.481C479.758 360.836 481.484 360.405 482.993 360.405C484.502 360.405 486.012 360.621 487.306 361.266C488.815 361.911 489.893 362.556 490.971 363.632C492.049 364.707 492.912 365.782 493.343 367.073C494.206 368.578 494.421 370.299 494.421 372.235C494.637 374.386 494.206 376.321 493.128 378.042Z" fill="#FFC72A"/>
<path d="M489.03 375.891C488.815 375.246 488.599 374.816 488.384 374.386C488.168 373.956 487.737 373.741 487.305 373.525C486.874 373.31 486.227 373.095 485.58 372.88C486.443 372.88 486.874 372.665 487.305 372.45C487.952 372.235 488.384 371.805 488.815 371.16C489.246 370.514 489.462 369.869 489.462 369.224C489.462 368.364 489.246 367.718 489.03 367.073C488.599 366.428 488.168 365.998 487.737 365.568C487.09 365.137 486.443 364.922 485.58 364.707C484.934 364.492 484.071 364.492 482.777 364.492H477.386V379.548H480.837V373.956H482.777C483.64 373.956 484.287 374.171 484.718 374.386C485.149 374.601 485.58 375.031 485.58 375.246C485.796 375.676 485.796 376.322 486.012 377.182C486.012 378.472 486.227 379.118 486.227 379.548H489.462C489.246 379.118 489.246 378.472 489.246 377.612C489.246 376.967 489.246 376.322 489.03 375.891ZM484.502 371.59C484.071 371.805 483.424 371.805 482.993 371.805H480.837V367.073H482.993C483.424 367.073 483.855 367.073 484.502 367.288C484.934 367.503 485.365 367.718 485.796 368.149C486.012 368.579 486.227 369.009 486.227 369.439C486.227 369.869 486.012 370.299 485.796 370.729C485.365 371.16 485.149 371.375 484.502 371.59Z" fill="#FFC72A"/>
<path d="M351.027 184.04H373.021V115H239.762V184.04H261.756L231.137 234.799L200.733 184.04H222.727V115H89.4677V184.04H111.462L31.4632 316.744H3V386H138.847V316.744H114.481L156.097 247.704L172.27 274.589H156.744V343.629H305.745V274.589H290.219L306.392 247.704L348.008 316.744H323.642V386H459.489V316.744H431.026L351.027 184.04ZM450.648 377.182C436.201 377.182 346.93 377.182 332.483 377.182C332.483 365.783 332.483 337.177 332.483 325.778C339.599 325.778 363.749 325.778 363.749 325.778L306.392 230.498L274.478 283.407C274.478 283.407 293.67 283.407 296.904 283.407C296.904 294.806 296.904 323.412 296.904 334.811C282.241 334.811 180.464 334.811 165.801 334.811C165.801 323.412 165.801 294.806 165.801 283.407C169.035 283.407 188.226 283.407 188.226 283.407L156.097 230.498L98.7398 325.778C98.7398 325.778 122.89 325.778 130.006 325.778C130.006 337.177 130.006 365.783 130.006 377.182C115.559 377.182 26.2881 377.182 11.8408 377.182C11.8408 365.783 11.8408 337.177 11.8408 325.778C20.2504 325.778 36.4227 325.778 36.4227 325.778L127.203 175.222C127.203 175.222 104.562 175.222 98.3086 175.222C98.3086 163.823 98.3086 135.217 98.3086 123.818C112.756 123.818 199.439 123.818 213.671 123.818C213.671 135.217 213.671 163.823 213.671 175.222C207.417 175.222 184.776 175.222 184.776 175.222L231.137 252.006L277.497 175.222C277.497 175.222 254.856 175.222 248.603 175.222C248.603 163.823 248.603 135.217 248.603 123.818C263.05 123.818 349.733 123.818 363.965 123.818C363.965 135.217 363.965 163.823 363.965 175.222C357.712 175.222 335.071 175.222 335.071 175.222L426.066 325.778C426.066 325.778 442.239 325.778 450.864 325.778C450.648 337.177 450.648 365.567 450.648 377.182Z" fill="#FFC72A"/>
<path d="M319.545 166.404C319.545 166.404 346.714 166.404 355.34 166.404C355.34 156.726 355.34 142.315 355.34 132.637C341.539 132.637 271.46 132.637 257.659 132.637C257.659 142.315 257.659 156.726 257.659 166.404C266.284 166.404 293.454 166.404 293.454 166.404L231.352 269.212L169.251 166.404C169.251 166.404 196.42 166.404 205.045 166.404C205.045 156.726 205.045 142.315 205.045 132.637C191.245 132.637 121.165 132.637 107.365 132.637C107.365 142.315 107.365 156.726 107.365 166.404C115.775 166.404 143.16 166.404 143.16 166.404L41.8133 334.596C41.8133 334.596 28.2286 334.596 20.8972 334.596C20.8972 344.275 20.8972 358.685 20.8972 368.364C34.9132 368.364 107.149 368.364 121.165 368.364C121.165 358.685 121.165 344.275 121.165 334.596C112.109 334.596 82.9987 334.596 82.9987 334.596L156.097 213.291L203.752 292.226C203.752 292.226 181.11 292.226 174.642 292.226C174.642 301.904 174.642 316.314 174.642 325.993C188.873 325.993 273.831 325.993 288.063 325.993C288.063 316.314 288.063 301.904 288.063 292.226C281.594 292.226 258.953 292.226 258.953 292.226L306.607 213.291L379.706 334.596C379.706 334.596 350.811 334.596 341.539 334.596C341.539 344.275 341.539 358.685 341.539 368.364C355.555 368.364 428.007 368.364 441.807 368.364C441.807 358.685 441.807 344.275 441.807 334.596C434.476 334.596 420.891 334.596 420.891 334.596L319.545 166.404Z" fill="#FFC72A"/>
</g>
<defs>
<clipPath id="clip0_1508:60745">
<rect width="493.793" height="271" fill="white" transform="translate(3 115)"/>
</clipPath>
</defs>
</svg>
